<svg width="147" height="100" viewBox="0 0 147 100" fill="none" xmlns="http://www.w3.org/2000/svg">
<g clip-path="url(#clip0_1610_7750)">
<path d="M134.375 49.786C133.922 49.6372 133.804 49.0668 134.152 48.7453C137.123 46.0001 139.578 42.3694 141.119 38.0935C143.857 30.4944 143.044 22.6868 139.566 17.1083H139.572L135.886 11.192L135.433 12.5163C134.124 11.5157 132.661 10.7096 131.053 10.148C123.993 7.68304 116.101 10.5152 110.595 16.7064C110.399 16.9269 110.077 16.9845 109.815 16.8465C101.229 12.3044 88.8658 11.9112 85.7966 19.7188C82.19 28.8931 92.2097 37.9175 90.4649 45.6101C90.4142 45.8338 90.2177 45.9968 89.9837 45.9968H82.1392C81.9339 45.9968 81.7419 45.9088 81.604 45.7611C81.2651 45.3982 80.902 45.0538 80.5147 44.7301C79.3128 43.7252 77.8925 42.942 76.2944 42.4009C74.7747 41.8871 73.1237 41.6264 71.3855 41.6264C69.6473 41.6264 67.9654 41.9056 66.4049 42.4553C64.7439 43.0408 63.2695 43.9066 62.0224 45.0278C60.729 46.1902 59.7125 47.609 59.0018 49.2418C58.3076 50.8365 57.9556 52.5867 57.9556 54.4454C57.9556 54.6714 57.7691 54.855 57.5395 54.855H46.5143C46.3091 54.855 46.1435 54.6909 46.1435 54.49V55.887C46.1435 52.3129 43.4926 49.4047 40.2336 49.4047L20.5274 44.9452C17.2684 44.9452 14.6175 47.8534 14.6175 51.4275V54.491C14.6175 54.6931 14.4509 54.8561 14.2467 54.8561H11.7922C8.52884 54.8561 5.88235 57.4601 5.88235 60.6735V76.7614C4.74894 77.6251 1.33765 80.8527 1.33765 80.8527L7.20339 87.8412V87.8401C8.28714 89.1525 9.93926 89.9922 11.7911 89.9922H103.877C104.326 89.9922 104.738 90.2366 104.948 90.6266L106.017 92.6169C106.133 92.8732 106.265 93.1199 106.416 93.3578L107.09 94.6125C109.342 98.8026 114.465 100.617 118.913 98.7993L124.789 96.3974C127.104 95.4512 128.627 93.2404 128.663 90.7733L128.666 90.6006C128.666 90.6006 128.669 90.5973 128.67 90.5951H129.786C129.8 90.5951 129.816 90.5941 129.83 90.593C129.848 90.593 129.865 90.5951 129.883 90.5951C139.335 90.5951 146.998 81.2981 146.998 69.8305C146.998 60.2477 141.648 52.1804 134.372 49.7882L134.375 49.786Z" fill="#FBB713"/>
<path d="M114.085 93.4251C110.951 93.4251 108.096 91.7325 106.632 89.009L105.317 86.5636C105.154 86.3007 105.006 86.027 104.878 85.7467L103.865 83.8608H7.24637C3.25016 83.8608 0 80.6603 0 76.7266V53.2254C0 49.2917 3.25127 46.0924 7.24637 46.0924H8.73405V43.9805C8.73405 39.6807 11.9853 36.1826 15.9804 36.1826H35.6867C39.6829 36.1826 42.933 39.6807 42.933 43.9805V46.0924H52.0975C52.1957 44.389 52.5743 42.7735 53.2254 41.2776C54.0123 39.471 55.1391 37.9001 56.5738 36.6106C57.9522 35.3711 59.5789 34.4162 61.4076 33.7709C63.1138 33.1701 64.9414 32.8648 66.8396 32.8648C68.7379 32.8648 70.5235 33.1495 72.1834 33.7111C73.9392 34.3054 75.5042 35.1701 76.834 36.2814C77.1927 36.5802 77.5381 36.9007 77.8626 37.2353H83.5771C80.8534 33.7796 78.1738 29.8415 76.9819 25.7546C75.4578 20.5303 76.5173 15.8459 80.2188 11.4353C83.554 7.4614 88.5644 5.27238 94.3253 5.27238C98.0522 5.27238 101.873 6.20991 105.41 7.98937C109.828 3.22242 115.571 0.5 121.249 0.5C123.207 0.5 125.127 0.823735 126.956 1.46252C132.121 3.26587 136.087 7.37557 138.126 13.0355C140.129 18.5977 140.026 25.0094 137.834 31.0886C136.406 35.0517 134.166 38.6247 131.324 41.4873C138.72 44.5117 143.793 52.9201 143.793 62.3834C143.793 74.4746 135.63 84.3268 125.553 84.4626C125.466 86.9993 124.019 89.3349 121.663 90.5625L118.018 92.4604C116.807 93.0905 115.446 93.424 114.085 93.424V93.4251Z" fill="white"/>
<path d="M129.83 42.3412C129.377 42.1924 129.259 41.622 129.607 41.3005C132.578 38.5552 135.034 34.9246 136.574 30.6487C140.893 18.664 136.387 6.15236 126.508 2.70317C119.448 0.23822 111.556 3.07036 106.05 9.26153C105.854 9.48206 105.532 9.53963 105.269 9.40058C96.6827 4.85851 86.6684 5.81885 81.2508 12.2729C73.8135 21.1344 79.1694 29.7992 85.9434 38.0522C86.1078 38.2521 85.9643 38.5509 85.7028 38.5509H77.5945C77.3892 38.5509 77.1972 38.4629 77.0592 38.3151C76.7204 37.9523 76.3573 37.6079 75.97 37.2842C74.7681 36.2793 73.3478 35.496 71.7497 34.955C70.23 34.4412 68.579 34.1805 66.8408 34.1805C65.1026 34.1805 63.4207 34.4596 61.8602 35.0093C60.1992 35.5949 58.7248 36.4607 57.4777 37.5818C56.1843 38.7443 55.1678 40.163 54.4571 41.7958C53.7629 43.3906 53.4109 45.1407 53.4109 46.9995C53.4109 47.2255 53.2243 47.4091 52.9948 47.4091H41.9696C41.7644 47.4091 41.5988 47.245 41.5988 47.044V43.9805C41.5988 40.4064 38.9479 37.4982 35.6889 37.4982H15.9827C12.7237 37.4982 10.0728 40.4064 10.0728 43.9805V47.044C10.0728 47.2461 9.90615 47.4091 9.70198 47.4091H7.24753C3.98413 47.4091 1.33765 50.0131 1.33765 53.2265V76.7277C1.33765 79.9401 3.98302 82.5452 7.24753 82.5452H103.942C104.391 82.5452 104.803 82.7896 105.013 83.1796L106.082 85.1699C106.198 85.4262 106.331 85.6728 106.481 85.9108L107.815 88.3942C109.645 91.7999 113.933 93.1003 117.393 91.298L121.038 89.4001C123.397 88.1715 124.576 85.6087 124.123 83.1547L124.128 83.1492H125.243C125.258 83.1492 125.273 83.1481 125.287 83.147C125.305 83.147 125.323 83.1492 125.34 83.1492C134.793 83.1492 142.455 73.8521 142.455 62.3845C142.455 52.8018 137.105 44.7344 129.83 42.3423V42.3412Z" fill="#24397A"/>
<path fill-rule="evenodd" clip-rule="evenodd" d="M130.983 16.9845V16.5608H130.84V15.8547H130.696V15.5722H130.553V15.1485L130.266 15.0073C130.17 14.5836 130.075 14.1599 129.979 13.7363C129.883 13.6895 129.788 13.6418 129.692 13.595V13.1714C129.596 13.1246 129.501 13.0768 129.405 13.0301L129.118 12.1828C128.927 12.0415 128.735 11.9003 128.544 11.7591C128.497 11.5711 128.448 11.3821 128.401 11.1942C128.21 11.053 128.018 10.9117 127.827 10.7705V10.488C127.636 10.3468 127.444 10.2056 127.253 10.0644C127.028 9.76453 127.4 9.91879 126.966 9.64069V9.35823C126.645 9.27132 126.61 9.23982 126.392 9.07578V8.93455C126.201 8.88784 126.009 8.84004 125.818 8.79333L125.675 8.51087H125.101L124.957 8.22842H124.527V8.08719H124.097V7.94596H123.379C123.008 7.83407 121.969 7.481 121.37 7.66351V7.80474H120.939V7.94596H120.365V8.08719H120.078V8.22842H119.218V8.36965H118.787V8.51087C118.117 8.55759 117.447 8.60539 116.777 8.6521V8.79333H116.347C116.3 8.88784 116.251 8.98127 116.204 9.07578H115.917C115.869 9.17029 115.821 9.26372 115.773 9.35823H115.343L115.199 9.64069H114.912C114.673 10.0644 114.434 10.488 114.195 10.9117H113.908V11.1942C113.354 11.3452 113.457 11.6168 112.904 11.7591V12.0415C112.49 12.1437 112.428 12.1936 112.33 12.6064C111.971 12.701 112.096 12.6803 111.899 12.8889H111.756V13.1714H111.612C111.469 13.3593 111.326 13.5483 111.182 13.7363C110.892 14.0133 110.52 14.0611 110.178 14.3012C110.082 14.4424 109.987 14.5836 109.891 14.7249H109.747V15.0073C109.604 15.1018 109.46 15.1952 109.317 15.2898V15.8547H109.173V16.1371H109.03C108.934 16.4196 108.839 16.702 108.743 16.9845H108.456C108.303 17.5298 108.027 17.4288 107.882 17.9731H107.595C107.577 18.3348 107.582 18.4663 107.452 18.6792H107.308C107.091 19.1061 107.279 19.3321 106.878 19.6678V19.809C106.556 19.8329 106.375 19.2115 106.161 19.1029H105.587C105.28 18.9725 104.889 18.5445 104.726 18.2555C104.018 18.2816 104.022 18.4695 103.435 18.538C103.502 17.5939 103.952 17.846 104.152 17.1257H104.009V16.8433C103.929 16.752 103.33 16.4619 103.148 16.4196V16.1371C102.761 16.1013 102.192 15.909 102 15.7134H101.713C101.501 15.57 101.574 14.9302 101.283 14.7249C100.996 14.6303 100.709 14.5369 100.422 14.4424L100.278 14.1599H99.8479C99.8004 14.0654 99.7519 13.972 99.7044 13.8775C99.0544 13.4973 98.5688 13.7156 97.6947 13.7363C97.6472 13.5005 97.5987 13.2659 97.5512 13.0301H97.4078V12.8889C96.7191 12.7531 96.441 12.5065 95.6861 12.7477H95.1122V12.8889C94.9688 12.9356 94.8253 12.9834 94.6818 13.0301C94.513 13.129 94.6289 13.368 94.2514 13.3126C94.2062 13.3061 93.3431 12.8748 93.2471 12.8889V13.0301H92.9602V13.1714H92.6732V13.3126C92.0033 13.2659 91.3334 13.2181 90.6635 13.1714V13.3126H90.2331C90.1857 13.4071 90.1371 13.5005 90.0897 13.595H89.8027V13.7363H89.3723C89.2763 13.8775 89.1814 14.0187 89.0854 14.1599H88.7984C88.751 14.2545 88.7024 14.3479 88.655 14.4424H88.368C88.3206 14.5369 88.272 14.6303 88.2245 14.7249C88.0811 14.7716 87.9376 14.8194 87.7941 14.8661V15.1485C87.5072 15.2333 87.6705 15.129 87.5072 15.2898C86.4841 15.2822 86.2071 15.8981 86.0725 16.702C85.7127 16.7911 85.8352 16.7748 85.6421 16.9845H85.4986V17.2669H85.3551C85.3077 17.4082 85.2591 17.5494 85.2117 17.6906C85.1046 17.8101 84.8563 19.356 84.9247 19.6689C84.9324 19.7036 85.1167 19.7145 85.0682 19.9513H84.9247V20.375H84.7812C84.8287 21.1757 84.8773 21.9763 84.9247 22.777H85.0682C85.1156 23.0127 85.1642 23.2473 85.2117 23.4831C85.3077 23.5298 85.4026 23.5776 85.4986 23.6243C85.663 23.8275 85.7138 24.0328 85.7855 24.3304C86.1409 24.3978 86.3109 24.4684 86.7898 24.4717L86.9333 25.0366H87.0768C87.0293 25.1778 86.9808 25.319 86.9333 25.4603H87.0768C87.1242 25.7894 87.1728 26.1197 87.2202 26.4488H87.0768C87.0955 27.155 87.1971 27.0366 87.6507 27.2962V27.4374C87.8416 27.4841 88.0336 27.5319 88.2245 27.5787C88.1385 27.8611 88.2444 27.7003 88.0811 27.8611C88.0888 28.4478 88.0447 28.8736 88.368 29.1322C88.5115 29.1789 88.655 29.2267 88.7984 29.2734V29.6971H88.9419V29.9795H89.0854V30.6857H89.2288C89.2763 30.8269 89.3249 30.9681 89.3723 31.1093C89.6118 31.156 89.8502 31.2038 90.0897 31.2506V31.3918C90.1978 31.3918 90.3369 31.2679 90.6635 31.2506C90.711 31.3918 90.7596 31.533 90.807 31.6742H90.9505V32.0979H91.094V32.6628H91.2374C91.4736 33.2505 91.4504 33.6167 92.0982 33.7926C92.1457 33.9339 92.1943 34.0751 92.2417 34.2163H92.3852V34.4988C92.4812 34.5455 92.5761 34.5933 92.6721 34.64C92.7681 35.0637 92.8631 35.4874 92.9591 35.911C93.0551 35.9578 93.15 36.0056 93.246 36.0523V36.3347C93.3895 36.4292 93.533 36.5227 93.6764 36.6172V36.7584H94.1068V36.8996H94.3938V37.0409H94.6807V37.1821C94.8716 37.3233 95.0637 37.4645 95.2546 37.6058C95.2071 38.124 95.1586 38.6422 95.1111 39.1593C95.3506 39.206 95.589 39.2538 95.8285 39.3005C95.578 39.9675 95.717 40.1424 96.1154 40.5715C96.2114 40.6182 96.3064 40.666 96.4024 40.7128C96.4984 41.0419 96.5933 41.3722 96.6893 41.7013C96.8239 41.8817 97.2235 41.86 97.4067 41.9838C97.5501 42.1717 97.6936 42.3608 97.8371 42.5487H98.124C98.1671 42.7997 98.2609 43.5156 98.411 43.6785V43.8197H98.8414C98.8888 44.1022 98.9374 44.3847 98.9848 44.6671H99.1283C99.3568 45.0234 99.6437 44.9898 99.9891 45.232C100.133 45.42 100.276 45.609 100.42 45.7969H100.706L100.85 46.0794C101.615 46.3618 102.381 46.6443 103.147 46.9267C103.479 47.0343 104.918 47.0767 105.156 46.9267V46.7855C105.739 46.6193 105.443 46.4987 105.874 46.2206C105.817 45.7404 105.686 45.3939 105.443 45.0908C105.347 45.0441 105.252 44.9963 105.156 44.9496C104.972 44.5585 105.358 44.0392 105.3 43.8197H105.156V43.5373C105.128 43.4873 104.95 43.4069 104.869 43.2548C104.356 43.2603 104.092 43.3309 103.722 43.3961V42.2663C103.549 42.1283 103.397 41.9002 103.291 41.7013C103.075 41.6188 103.005 41.6459 102.717 41.5601V41.4189C102.433 41.3635 102.109 41.772 101.713 41.5601V41.4189H101.57V40.9952H102.287C102.016 40.5498 101.647 40.5281 101.57 39.8654C101.139 39.772 100.918 39.596 100.565 39.4417C100.442 39.1473 100.243 38.7171 100.135 38.4531V38.0294H99.9913L99.8479 37.4645H99.7044V37.0409H99.5609V36.7584C99.4649 36.7117 99.37 36.6639 99.274 36.6172V35.6286H99.1305C99.0113 35.1549 98.7674 35.0094 98.2697 34.9225C98.2255 34.4684 98.1196 34.011 97.8393 33.7926C97.6958 33.7459 97.5523 33.6981 97.4089 33.6514C97.3129 33.369 97.2179 33.0865 97.1219 32.8041C96.9785 32.7095 96.835 32.6161 96.6915 32.5216V32.2391C96.3571 32.0034 96.0216 31.7688 95.6872 31.533V31.2506C95.9068 31.168 95.9212 31.1376 96.2611 31.1093V30.262C95.823 30.1653 95.7645 30.0241 95.2568 29.9795C95.1387 29.4027 94.9301 29.1658 94.6829 28.7085H94.5395V28.2848L94.2525 28.1436V27.8611C94.0616 27.7666 93.8696 27.6732 93.6786 27.5787C93.6312 27.3907 93.5826 27.2017 93.5352 27.0138C93.3917 26.9192 93.2482 26.8258 93.1048 26.7313V26.4488H92.9613V26.0252H92.8178C92.5728 25.5428 92.6832 25.3397 92.1005 25.1778V24.1892C91.9625 23.9589 91.6027 24.161 91.3831 24.048C91.3356 23.9535 91.2871 23.8601 91.2396 23.7655H90.9527C90.9052 23.671 90.8567 23.5776 90.8092 23.4831H90.6658C90.349 23.0355 90.4737 22.5434 89.9484 22.212C90.2673 21.8514 90.8114 21.9035 91.0962 21.5059H91.2396C91.1922 21.318 91.1436 21.1289 91.0962 20.941C89.7431 20.7237 89.6559 20.1643 89.9484 18.8215H90.2353C90.2298 18.3164 90.1581 18.0567 90.0919 17.6917C90.2353 17.645 90.3788 17.5972 90.5223 17.5505V17.4092H90.8092V17.268H91.0962L91.3831 16.7031C91.5266 16.6564 91.67 16.6086 91.8135 16.5619V16.2794C91.9095 16.2327 92.0044 16.1849 92.1005 16.1382V15.8558H92.2439C92.4106 15.6472 92.4503 15.607 92.5309 15.2908C92.8178 15.3756 92.6545 15.2713 92.8178 15.4321H92.9613C93.0584 15.6656 92.8244 15.6885 92.8178 15.7145C92.7163 16.1426 92.8774 16.6064 92.9613 16.8443C93.7228 16.9704 93.4546 16.8672 94.109 16.7031V16.2794H94.5395V16.4207H94.396V16.7031H94.5395L94.6829 16.8443V17.268C94.8264 17.3147 94.9699 17.3625 95.1133 17.4092V17.6917C95.5438 17.7862 95.9742 17.8796 96.4046 17.9742V18.1154C96.548 18.1621 96.6915 18.2099 96.835 18.2566V18.5391C97.2257 18.6368 97.1594 18.7303 97.5523 18.8215V19.104H97.9828V19.3864C98.0788 19.4331 98.1737 19.4809 98.2697 19.5276V19.6689H98.5566L98.987 20.2338C99.178 20.2805 99.37 20.3283 99.5609 20.375C99.6084 20.4695 99.6569 20.563 99.7044 20.6575H99.9913L100.278 21.0811C100.709 21.4103 101.139 21.7406 101.57 22.0697V22.3522H101.856V22.6346H102.143V22.9171H102.43C102.586 23.5102 103.511 24.4782 104.009 24.753V25.0355C104.804 25.1452 104.453 25.3158 104.869 25.6004H105.156C105.204 25.6949 105.252 25.7883 105.3 25.8829C105.73 25.9296 106.161 25.9774 106.591 26.0241V26.1653H106.878C106.925 26.2598 106.974 26.3533 107.021 26.4478H107.165V26.3065C107.308 26.3532 107.452 26.4011 107.595 26.4478V26.3065H107.882C107.93 26.212 107.978 26.1186 108.026 26.0241H108.169C108.323 25.7514 108.087 25.4961 108.313 25.3179C108.791 25.1767 109.269 25.0355 109.747 24.8943C109.795 24.7998 109.843 24.7063 109.891 24.6118C110.116 24.426 110.587 24.1219 110.895 24.0469C111.032 23.5417 111.343 23.4255 111.469 22.9171H111.756V22.4934H111.899C112.009 22.1088 111.934 22.1718 112.33 22.0697C112.436 21.7036 112.554 21.6124 112.76 21.3636H112.904V21.0811C113 21.0344 113.095 20.9866 113.191 20.9399V20.6575H113.334V20.375L113.621 20.0926V19.8101C113.765 19.7156 113.908 19.6222 114.051 19.5276V19.2452C114.195 19.1507 114.338 19.0573 114.482 18.9627C114.789 18.5228 114.917 17.872 114.912 17.1268C115.343 16.9856 115.773 16.8443 116.204 16.7031V16.4207H116.49V16.1382H116.777V15.8558C117.576 15.6276 117.218 15.2811 117.638 14.8672C117.898 14.6119 118.326 14.6542 118.643 14.4435C118.69 14.349 118.739 14.2555 118.786 14.161C119.232 13.7504 119.653 13.3191 120.364 13.1724V12.89C120.795 12.7955 121.225 12.702 121.655 12.6075V12.7488C121.846 12.7955 122.038 12.8433 122.229 12.89V13.1724C122.971 13.2713 123.034 13.7167 123.664 13.8786V14.3023C123.826 14.4228 123.686 14.2827 123.807 14.4435C124.163 14.5108 124.333 14.5815 124.812 14.5847C124.717 14.9497 124.665 14.9899 124.381 15.1496C124.403 15.9644 124.635 16.1263 124.812 16.7031V17.8329H124.955V19.9524H125.099C125.146 20.2349 125.195 20.5173 125.242 20.7998H125.099C125.051 21.318 125.003 21.8362 124.955 22.3533H124.812C124.764 22.9182 124.716 23.4831 124.668 24.048H124.525V24.4717H124.381V24.7541H124.238V25.319H124.094V25.6015C123.998 25.6482 123.903 25.696 123.807 25.7427V26.0252H123.664V26.7313C123.568 26.778 123.473 26.8258 123.377 26.8725V27.2962H123.234V27.5787H123.09V28.0023C122.994 28.0491 122.899 28.0969 122.803 28.1436V28.5672H122.66C122.612 28.7085 122.564 28.8497 122.516 28.9909C122.42 29.0376 122.325 29.0854 122.229 29.1322C122.182 29.4613 122.133 29.7916 122.086 30.1207C121.942 30.1675 121.799 30.2153 121.655 30.262C121.559 30.4032 121.464 30.5444 121.368 30.6857H121.225C121.085 30.9257 121.104 31.5667 120.938 31.8155C120.747 31.9567 120.555 32.0979 120.364 32.2391V32.5216C120.03 32.8041 119.694 33.0865 119.36 33.369V33.6514C119.169 33.7926 118.977 33.9339 118.786 34.0751V34.3575C118.643 34.4521 118.499 34.5455 118.356 34.64C118.26 34.9225 118.165 35.2049 118.069 35.4874C117.591 35.8643 117.112 36.2413 116.634 36.6172C116.339 36.9344 116.314 37.2299 115.917 37.4645V37.8882H115.63C115.404 38.6878 114.546 39.068 114.338 39.8665C113.843 39.9914 113.41 40.4618 113.191 40.8551H112.904V41.1375H112.617C112.506 41.1951 111.802 42.339 111.756 42.5498H111.469C111.29 43.2212 110.767 43.6872 110.321 44.1033L110.178 44.3857H109.891C109.843 44.4803 109.795 44.5737 109.747 44.6682H109.46C109.413 44.7627 109.364 44.8561 109.317 44.9506C109.03 45.1864 108.743 45.421 108.456 45.6568V45.9392C108.36 45.9859 108.265 46.0337 108.169 46.0805V46.3629H108.026C107.978 46.5041 107.93 46.6454 107.882 46.7866H107.595C107.442 47.3319 107.166 47.2309 107.021 47.7752C106.53 47.9066 106.653 48.0761 106.161 48.1989C105.984 48.8127 105.706 48.6801 105.443 49.0462V49.3287C105.347 49.3754 105.252 49.4232 105.156 49.4699C105.109 49.6578 105.06 49.8469 105.013 50.0348C104.869 50.1293 104.726 50.2228 104.582 50.3173V51.0234C104.537 51.1212 104.394 51.0256 104.295 51.4471H104.009C103.92 51.773 103.88 51.7839 103.722 52.012H103.578V52.5769H103.435C103.387 52.7648 103.339 52.9539 103.291 53.1418H103.148V53.7067H103.004V54.1304H102.861V54.5541H102.717V54.9777H102.574V55.8251H102.43V56.6725H102.287V57.5198H102.143C101.962 58.1477 102.165 59.7784 102.287 60.2042V61.334H102.43C102.478 61.8522 102.526 62.3704 102.574 62.8875H102.717V63.4524H102.861V63.8761H103.004C103.052 64.2998 103.1 64.7235 103.148 65.1472H103.291V65.4296H103.435V65.8533C103.698 66.4475 104.139 67.1113 104.295 67.8316H104.582C104.612 68.1922 104.591 68.3226 104.726 68.5377H104.869V68.9614C104.965 69.0081 105.06 69.0559 105.156 69.1026V69.5263C105.252 69.573 105.347 69.6208 105.443 69.6675V70.0912C105.539 70.1379 105.634 70.1857 105.73 70.2324V70.5149L106.017 70.7973V71.0798H106.161V71.3622C106.257 71.4089 106.352 71.4568 106.448 71.5035C106.495 71.7392 106.544 71.9739 106.591 72.2096C106.687 72.2563 106.782 72.3041 106.878 72.3508V72.6333H107.021V73.057C107.117 73.1037 107.212 73.1515 107.308 73.1982C107.404 73.4806 107.499 73.7631 107.595 74.0455L107.882 74.1868V74.6105H108.026V74.8929H108.169V75.1754C108.265 75.2221 108.36 75.2699 108.456 75.3166V75.8815C108.552 75.9282 108.647 75.976 108.743 76.0227C108.839 76.3052 108.934 76.5876 109.03 76.8701C109.126 76.9168 109.221 76.9646 109.317 77.0113V77.2938L109.604 77.5762V77.8587H109.747V78.1411H109.891V78.4236C109.987 78.4703 110.082 78.5181 110.178 78.5648V78.8473H110.321V79.2709H110.465V79.5534H110.608V79.8358C110.704 79.8826 110.799 79.9304 110.895 79.9771V80.2595H111.039V80.542H111.182V80.9657C111.278 81.0124 111.373 81.0602 111.469 81.1069V81.3893H111.612V81.6718H111.756V82.0955C111.852 82.1422 111.947 82.19 112.043 82.2367C112.09 82.3779 112.139 82.5191 112.186 82.6604H112.33V83.0841H112.473V83.3665H112.617V83.649C112.713 83.6957 112.808 83.7435 112.904 83.7902V84.0726C113.13 84.3844 113.686 84.5691 113.908 84.92C114.348 84.9081 114.607 84.9167 114.912 84.7788V84.6376C115.152 84.5908 115.39 84.543 115.63 84.4963V84.3551H115.917C115.964 84.2606 116.013 84.1672 116.06 84.0726H116.49C116.538 83.9781 116.586 83.8847 116.634 83.7902H116.921C116.968 83.6957 117.017 83.6023 117.064 83.5077C117.208 83.461 117.351 83.4132 117.495 83.3665V83.0841C117.591 83.0373 117.686 82.9895 117.782 82.9428V82.5191H117.925V81.2481H117.782V80.9657C117.686 80.9189 117.591 80.8711 117.495 80.8244L117.351 80.2595H117.208V79.9771H117.064V79.6946L116.777 79.4122V79.1297L116.49 78.9885L116.347 78.4236H116.204C116.156 78.2356 116.108 78.0466 116.06 77.8587H115.917V77.435C115.821 77.3883 115.726 77.3405 115.63 77.2938C115.582 77.1525 115.534 77.0113 115.486 76.8701H115.343V76.4464C115.247 76.3997 115.152 76.3519 115.056 76.3052C115.008 76.1172 114.96 75.9282 114.912 75.7403C114.669 75.2981 114.313 74.9125 114.195 74.328H113.908C113.863 74.0097 113.895 73.9586 113.765 73.7631H113.621V73.4806H113.478V73.057H113.334C113.238 72.7745 113.143 72.4921 113.047 72.2096H112.904V71.9271H112.76V71.6447H112.617C112.521 71.3622 112.426 71.0798 112.33 70.7973C112.234 70.7506 112.139 70.7028 112.043 70.6561C111.995 70.4204 111.947 70.1857 111.899 69.95H111.756C111.708 69.762 111.66 69.573 111.612 69.3851H111.469V69.1026C111.373 69.0559 111.278 69.0081 111.182 68.9614C111.135 68.6789 111.086 68.3965 111.039 68.114H110.895V67.8316C110.752 67.737 110.608 67.6436 110.465 67.5491V67.1254H110.321C110.274 66.9375 110.225 66.7485 110.178 66.5605H110.034V66.1368H109.891V65.8544C109.795 65.8077 109.7 65.7599 109.604 65.7132C109.508 65.2895 109.413 64.8658 109.317 64.4421C109.221 64.3954 109.126 64.3476 109.03 64.3009C108.983 63.9717 108.934 63.6415 108.887 63.3123C108.791 63.2656 108.696 63.2178 108.6 63.1711C108.552 62.6062 108.504 62.0413 108.456 61.4764H108.313V61.0527H108.169V59.2167C108.153 59.0081 108.026 58.9343 108.026 58.9343C107.957 58.629 108.169 58.5106 108.169 58.5106V56.3911H108.313V55.9674H108.456V55.1201H108.6C108.647 54.9321 108.696 54.7431 108.743 54.5552H108.887V54.1315H109.03C109.126 53.849 109.221 53.5666 109.317 53.2841H109.46C109.508 53.0962 109.556 52.9071 109.604 52.7192C109.747 52.6247 109.891 52.5313 110.034 52.4368V52.1543C110.13 52.1076 110.225 52.0598 110.321 52.0131V51.7306H110.465V51.4482C110.608 51.3537 110.752 51.2602 110.895 51.1657C111.01 50.9973 111.009 50.566 111.182 50.4596H111.469V50.1771H111.756C111.947 49.5025 112.436 49.5775 112.617 48.9061C113.108 48.7746 112.985 48.6052 113.478 48.4824V48.1999H113.765C113.897 47.7154 114.256 47.4786 114.482 47.0701H114.769C114.867 46.7182 114.843 46.8398 115.056 46.6465V46.5052H115.343C115.439 46.364 115.534 46.2228 115.63 46.0815H115.917C116.156 45.7991 116.394 45.5166 116.634 45.2342H116.921C117.167 44.351 118.138 44.0685 118.356 43.2559C118.676 43.1766 118.719 43.1386 118.929 42.9735V42.8322H119.216V42.691C119.667 42.3162 119.843 42.0262 120.077 41.42H120.364C120.567 40.7595 120.861 41.0876 121.225 40.7138C121.388 40.5465 121.233 40.3749 121.368 40.1489C121.464 40.1022 121.559 40.0544 121.655 40.0077C121.703 39.8665 121.751 39.7253 121.799 39.584C121.942 39.5373 122.086 39.4895 122.229 39.4428C122.325 39.3016 122.42 39.1603 122.516 39.0191H122.803C122.851 38.8779 122.899 38.7367 122.947 38.5954H123.09V38.313H123.234V38.0305C123.33 37.9838 123.424 37.936 123.521 37.8893C123.568 37.6536 123.617 37.4189 123.664 37.1832C123.76 37.1365 123.855 37.0887 123.951 37.0419V36.7595C124.094 36.665 124.238 36.5716 124.381 36.477V36.1946L124.812 35.9121V35.7709C124.955 35.7242 125.099 35.6764 125.242 35.6297V35.4885H125.529C125.767 35.3266 126.163 34.6922 126.246 34.3586H126.39V33.7937H126.677C126.796 33.0094 126.957 33.3603 127.251 32.9464V32.6639C127.347 32.6172 127.442 32.5694 127.538 32.5227V32.2402H127.681V31.9578H127.825V30.828H127.968C128.064 30.5455 128.159 30.2631 128.255 29.9806H128.542C128.634 29.6634 128.663 29.633 128.829 29.4157H128.972C129.152 29.1332 128.94 28.7704 129.116 28.4271C129.259 28.3326 129.403 28.2392 129.546 28.1447C129.861 27.6732 130.258 26.7715 130.264 26.0252H130.551C130.64 25.6069 131.063 25.1235 130.838 24.4717H130.694V24.1892H130.551V22.6357H130.694V22.0708H130.838V21.5059H130.981V21.2235H131.124V16.9856H130.981L130.983 16.9845Z" fill="#EB1C24"/>
<path fill-rule="evenodd" clip-rule="evenodd" d="M135.432 59.5056V58.9407H135.288V58.0933H135.145C135.098 57.6696 135.049 57.246 135.001 56.8223H134.858V56.3986H134.715V56.1162H134.571V55.6925H134.428V55.2688H134.284C134.188 54.9863 134.093 54.7039 133.997 54.4214H133.854V54.139C133.758 54.0923 133.663 54.0445 133.567 53.9977V53.7153C133.471 53.6686 133.376 53.6208 133.28 53.5741C133.232 53.4328 133.184 53.2916 133.136 53.1504H132.993C132.824 52.9407 132.794 52.8994 132.706 52.5855H132.419V52.303H132.132C131.994 51.7588 131.807 51.8707 131.415 51.5969V51.4557C131.206 51.2927 131.162 51.246 130.841 51.1732V50.8908C129.888 50.6843 128.982 49.9337 128.114 49.6197H127.253V49.4785C126.823 49.4318 126.392 49.384 125.962 49.3373V49.196C125.866 49.2427 125.771 49.2905 125.675 49.3373V49.196H124.384V49.0548H122.374V49.196H121.226V49.3373H120.078V49.4785H119.504V49.6197H118.644V49.7609H118.357V49.9022H117.926V50.0434C117.639 50.0901 117.352 50.1379 117.065 50.1846V50.3258C116.779 50.4204 116.492 50.5138 116.205 50.6083V50.7495H115.918V50.8908C115.727 50.9375 115.535 50.9853 115.344 51.032C115.248 51.1732 115.153 51.3144 115.057 51.4557H114.77C114.722 51.5502 114.674 51.6436 114.626 51.7381C114.483 51.7848 114.34 51.8326 114.196 51.8793V52.0206H113.909V52.1618C113.718 52.303 113.526 52.4443 113.335 52.5855C113.399 54.4823 114.62 55.4296 114.77 57.247C115.281 57.2069 115.347 57.1819 115.631 56.9646V56.8234H115.918C115.965 56.7289 116.014 56.6354 116.061 56.5409H116.348C116.444 56.3997 116.539 56.2585 116.635 56.1172C116.922 56.0227 117.209 55.9293 117.496 55.8348C117.543 55.7403 117.592 55.6468 117.639 55.5523H118.07V55.4111C118.357 55.3166 118.644 55.2232 118.931 55.1286V54.9874H119.504V54.8462H119.935V54.705H120.365V54.5637H121.083V54.4225H122.23V54.2813H123.809V54.4225H124.956V54.5637H125.53V54.705H125.961V54.8462C126.18 54.9755 126.31 54.9603 126.678 54.9874V55.2699C127.069 55.3676 127.002 55.4611 127.395 55.5523C127.57 56.127 127.498 55.7022 127.826 55.976V56.1172H127.969C128.017 56.2585 128.065 56.3997 128.113 56.5409C128.209 56.5876 128.304 56.6354 128.4 56.6821V56.9646H128.543C128.639 57.2471 128.734 57.5295 128.83 57.812H128.974V58.2356H129.117V58.8005H129.26V59.3655H129.404V60.0716H129.547V61.9075C129.547 63.3481 129.334 64.5191 128.974 65.5805C128.926 65.9097 128.877 66.2399 128.83 66.5691H128.687V66.8516H128.543V67.4165H128.4C128.352 67.6044 128.304 67.7934 128.256 67.9814H128.113V68.2638C128.017 68.3105 127.922 68.3583 127.826 68.4051C127.778 68.593 127.73 68.782 127.682 68.97H127.539C127.299 69.26 127.081 69.3991 126.965 69.8173H126.678C126.537 70.3551 126.363 70.2606 125.961 70.5235C125.913 70.618 125.865 70.7114 125.817 70.8059H125.387V70.9471H125.1V71.0884H124.526V71.2296C124.15 71.2133 124.038 71.1742 123.809 71.0884C123.498 69.5175 123.241 67.7206 122.804 66.2856V65.1557H122.661V64.8733H122.517V64.3084H122.374C122.326 63.838 122.278 63.3665 122.23 62.8961H122.087C121.991 62.6137 121.896 62.3312 121.8 62.0488C121.657 62.002 121.513 61.9542 121.37 61.9075V61.6251C121.274 61.5784 121.179 61.5306 121.083 61.4839V61.3426H120.796V61.2014C120.509 61.1069 120.222 61.0135 119.935 60.9189V60.7777C119.321 60.5561 118.948 60.9211 118.5 60.4953C117.347 60.4877 115.669 60.3084 114.769 60.6365C114.721 61.1069 114.673 61.5784 114.625 62.0488H114.482C114.213 62.9841 114.641 64.3203 114.338 65.1568H114.482V65.4393C114.578 65.486 114.673 65.5338 114.769 65.5805V65.7217H116.634C116.634 65.7217 116.627 65.8173 116.921 65.863V66.1454H117.208C117.511 67.675 117.763 69.3122 118.212 70.6658C118.26 71.4186 118.308 72.1726 118.356 72.9265H118.499V73.2089H118.643V74.1975H118.786V74.9037C118.922 75.3187 119.169 75.6446 119.216 76.1747C119.909 76.2942 120.901 76.3148 121.8 76.3159H123.091V76.4572H125.244V76.3159C125.818 76.2692 126.392 76.2214 126.966 76.1747V76.0335H127.253V75.8922H127.683V75.751H128.114V75.6098H128.401C128.497 75.4686 128.592 75.3273 128.688 75.1861H129.118C129.166 75.0916 129.214 74.9982 129.262 74.9037C129.405 74.8569 129.548 74.8092 129.692 74.7624V74.6212C129.905 74.4561 129.946 74.4224 130.266 74.3388V74.0563H130.696V73.9151C130.983 73.6793 131.27 73.4447 131.557 73.2089V72.9265C131.701 72.832 131.844 72.7385 131.987 72.644V72.3616C132.227 72.1736 132.465 71.9846 132.705 71.7967V71.373C132.848 71.2785 132.992 71.185 133.135 71.0905C133.231 70.8081 133.326 70.5256 133.422 70.2432L133.709 69.9607V69.6783C133.805 69.6316 133.9 69.5838 133.996 69.537V69.1134H134.14C134.187 68.9254 134.236 68.7364 134.283 68.5485H134.427C134.474 68.3127 134.523 68.0781 134.57 67.8423H134.713V67.2774H134.857V66.995H135C135.048 66.5246 135.096 66.0531 135.144 65.5827C135.538 64.3106 135.574 62.9526 135.574 61.2036V59.5089H135.431L135.432 59.5056Z" fill="#EB1C24"/>
<path d="M74.1865 45.3559C74.1865 46.2358 73.7108 47.1733 72.7584 48.1674C71.8059 49.1049 71.3303 50.0229 71.3303 50.9224V76.1455H65.4712V50.3488C65.4712 49.22 65.9468 48.2163 66.8992 47.3352C67.8903 46.4944 68.3858 45.7958 68.3858 45.2407C68.3858 44.1315 67.813 43.5764 66.6664 43.5764C65.2284 43.5764 64.5088 44.5237 64.5088 46.4172H59.3196C59.3196 45.3461 59.5094 44.376 59.8879 43.5047C60.2676 42.6345 60.7918 41.898 61.4628 41.2951C62.1327 40.6932 62.9295 40.2293 63.8533 39.9034C64.7759 39.5775 65.7725 39.4156 66.8408 39.4156C67.9091 39.4156 68.9255 39.5688 69.8294 39.8752C70.7332 40.1815 71.5058 40.602 72.147 41.1375C72.7882 41.6731 73.2881 42.3043 73.649 43.0311C74.0088 43.7589 74.1875 44.5335 74.1875 45.3559H74.1865Z" fill="#22A84B"/>
<path d="M91.4823 58.3259C95.1353 59.1102 96.9629 61.1472 96.9629 64.4377V76.1454H91.3068V66.0456C91.3068 63.3101 90.0332 61.799 87.4883 61.5122L82.1832 65.8728V76.1454H76.4399V52.6442H82.1832V59.5024L91.1909 52.3574L97.0213 53.8207L91.4834 58.3259H91.4823Z" fill="#22A84B"/>
<path d="M80.5191 51.3721L80.4484 50.6953C80.1074 47.3722 77.5139 43.974 77.4035 43.8306L76.95 43.2483L77.7258 43.2994L77.7324 43.3027C78.4774 43.3983 80.7784 43.8437 82.1005 45.8502C85.7083 42.301 94.4556 40.7019 94.8319 40.6346L94.9974 40.6052L95.1564 41.2288L94.9963 41.2799C89.3922 43.0495 81.1007 50.8257 81.0179 50.9039L80.518 51.3743L80.5191 51.3721Z" fill="#22A84B"/>
<path d="M7.24756 76.1454V52.6442H13.1067V76.1454H7.24756Z" fill="white"/>
<path d="M37.7194 64.6387C37.7194 66.4377 37.4027 68.064 36.7714 69.5176C36.1391 70.9711 35.2308 72.2106 34.0455 73.2329C32.8602 74.2563 31.4167 75.046 29.7171 75.6001C28.0164 76.1552 26.0873 76.4322 23.9308 76.4322C23.4253 76.4322 22.8912 76.4181 22.3272 76.3888C21.7633 76.3605 21.2004 76.2975 20.6365 76.2019L15.04 52.6431H20.8992L25.2419 71.209C27.3796 71.2666 29.0317 70.6354 30.1972 69.3155C31.2655 68.1487 31.8007 66.5898 31.8007 64.6376C31.8007 59.8555 29.1576 57.5785 23.8712 57.8088V52.5866C24.1626 52.5486 24.4539 52.5291 24.7464 52.5291H25.5918C33.6769 52.5291 37.7194 56.566 37.7194 64.6376V64.6387Z" fill="white"/>
<path d="M54.5002 76.1454V73.2187C52.752 75.4382 50.3219 76.5474 47.213 76.5474C45.1922 76.5474 43.4629 75.926 42.0237 74.6821C41.2082 74.0118 40.6056 73.209 40.216 72.2714C39.8264 71.3339 39.6333 70.291 39.6333 69.1438V52.6442H45.4924V68.4551C45.4924 68.9331 45.5895 69.3785 45.7838 69.7891C45.978 70.2008 46.2451 70.5593 46.585 70.8657C46.9249 71.172 47.3377 71.41 47.8244 71.5827C48.31 71.7554 48.8452 71.8412 49.4279 71.8412C50.6331 71.8412 51.7698 71.4295 52.8381 70.6071C53.9462 69.8043 54.4991 68.8668 54.4991 67.7956V52.6442H60.3582V76.1454H54.4991H54.5002Z" fill="white"/>
<path d="M35.5708 48.541C29.0009 45.987 23.059 51.8348 16.4892 49.2808C16.359 47.5502 16.2298 45.8186 16.0996 44.088C22.6375 46.214 28.5462 39.9381 35.0852 42.0641C35.2474 44.2227 35.4085 46.3813 35.5708 48.541Z" fill="white"/>
</g>
<defs>
<clipPath id="clip0_1610_7750">
<rect width="147" height="99" fill="white" transform="translate(0 0.5)"/>
</clipPath>
</defs>
</svg>
